<svg xmlns="http://www.w3.org/2000/svg" width="72" height="72"><path fill-rule="evenodd" fill="#818181" d="M70.698 69.404h-.658a3.87 3.87 0 00.224-1.301 3.88 3.88 0 00-.971-2.576 3.909 3.909 0 00-2.499-4.572V15.192a1.3 1.3 0 00-1.302-1.301h-19.52V1.314c0-.719-.583-1.302-1.302-1.302H6.496c-.718 0-1.301.583-1.301 1.302v59.641a3.909 3.909 0 00-2.499 4.572 3.894 3.894 0 00-.748 3.877h-.657a1.302 1.302 0 000 2.602h69.407a1.3 1.3 0 100-2.602zM38.597 54.659c.719 0 1.301-.583 1.301-1.301v-1.736a1.3 1.3 0 00-2.602 0v1.736c0 .718.583 1.301 1.301 1.301zm-5.205 0c.718 0 1.301-.583 1.301-1.301v-1.736a1.3 1.3 0 00-2.603 0v1.736c0 .718.583 1.301 1.302 1.301zm-5.206 0c.719 0 1.301-.583 1.301-1.301v-1.736a1.3 1.3 0 00-2.602 0v1.736c0 .718.582 1.301 1.301 1.301zm-5.206 0c.719 0 1.302-.583 1.302-1.301v-1.736a1.301 1.301 0 00-2.603 0v1.736c0 .718.583 1.301 1.301 1.301zm-5.205 0c.718 0 1.301-.583 1.301-1.301v-1.736a1.3 1.3 0 00-2.602 0v1.736c0 .718.582 1.301 1.301 1.301zm-5.205 0c.718 0 1.301-.583 1.301-1.301v-1.736a1.3 1.3 0 00-2.603 0v1.736c0 .718.583 1.301 1.302 1.301zm26.027-8.674c.719 0 1.301-.583 1.301-1.301v-1.735a1.3 1.3 0 10-2.602 0v1.735c0 .719.583 1.301 1.301 1.301zm-5.205 0c.718 0 1.301-.583 1.301-1.301v-1.735a1.301 1.301 0 00-2.603 0v1.735c0 .719.583 1.301 1.302 1.301zm-5.206 0c.719 0 1.301-.583 1.301-1.301v-1.735a1.3 1.3 0 10-2.602 0v1.735a1.3 1.3 0 001.301 1.301zm-5.206 0c.719 0 1.302-.583 1.302-1.301v-1.735a1.301 1.301 0 00-2.603 0v1.735c0 .719.583 1.301 1.301 1.301zm-5.205 0c.718 0 1.301-.583 1.301-1.301v-1.735a1.301 1.301 0 00-2.602 0v1.735a1.3 1.3 0 001.301 1.301zm-5.205 0c.718 0 1.301-.583 1.301-1.301v-1.735a1.301 1.301 0 00-2.603 0v1.735c0 .719.583 1.301 1.302 1.301zm26.027-8.674c.719 0 1.301-.583 1.301-1.302v-1.734a1.3 1.3 0 10-2.602 0v1.734c0 .719.583 1.302 1.301 1.302zm-5.205 0c.718 0 1.301-.583 1.301-1.302v-1.734a1.301 1.301 0 00-2.603 0v1.734c0 .719.583 1.302 1.302 1.302zm-5.206 0c.719 0 1.301-.583 1.301-1.302v-1.734a1.3 1.3 0 10-2.602 0v1.734c0 .719.582 1.302 1.301 1.302zm-5.206 0c.719 0 1.302-.583 1.302-1.302v-1.734a1.301 1.301 0 00-2.603 0v1.734c0 .719.583 1.302 1.301 1.302zm-5.205 0c.718 0 1.301-.583 1.301-1.302v-1.734a1.301 1.301 0 00-2.602 0v1.734c0 .719.582 1.302 1.301 1.302zm-5.205 0c.718 0 1.301-.583 1.301-1.302v-1.734a1.301 1.301 0 00-2.603 0v1.734c0 .719.583 1.302 1.302 1.302zm26.027-8.674c.719 0 1.301-.583 1.301-1.301v-1.735a1.3 1.3 0 10-2.602 0v1.735c0 .718.583 1.301 1.301 1.301zm-5.205 0c.718 0 1.301-.583 1.301-1.301v-1.735a1.301 1.301 0 00-2.603 0v1.735c0 .718.583 1.301 1.302 1.301zm-5.206 0c.719 0 1.301-.583 1.301-1.301v-1.735a1.3 1.3 0 10-2.602 0v1.735c0 .718.582 1.301 1.301 1.301zm-5.206 0c.719 0 1.302-.583 1.302-1.301v-1.735a1.301 1.301 0 00-2.603 0v1.735c0 .718.583 1.301 1.301 1.301zm-5.205 0c.718 0 1.301-.583 1.301-1.301v-1.735a1.301 1.301 0 00-2.602 0v1.735c0 .718.582 1.301 1.301 1.301zm-5.205 0c.718 0 1.301-.583 1.301-1.301v-1.735a1.301 1.301 0 00-2.603 0v1.735c0 .718.583 1.301 1.302 1.301zm26.027-8.674c.719 0 1.301-.583 1.301-1.301v-1.735a1.3 1.3 0 10-2.602 0v1.735c0 .718.583 1.301 1.301 1.301zm-5.205 0c.718 0 1.301-.583 1.301-1.301v-1.735a1.301 1.301 0 00-2.603 0v1.735c0 .718.583 1.301 1.302 1.301zm-5.206 0c.719 0 1.301-.583 1.301-1.301v-1.735a1.3 1.3 0 10-2.602 0v1.735c0 .718.582 1.301 1.301 1.301zm-5.206 0c.719 0 1.302-.583 1.302-1.301v-1.735a1.301 1.301 0 00-2.603 0v1.735c0 .718.583 1.301 1.301 1.301zm-5.205 0c.718 0 1.301-.583 1.301-1.301v-1.735a1.301 1.301 0 00-2.602 0v1.735c0 .718.582 1.301 1.301 1.301zm-5.205 0c.718 0 1.301-.583 1.301-1.301v-1.735a1.301 1.301 0 00-2.603 0v1.735c0 .718.583 1.301 1.302 1.301zm26.027-8.674c.719 0 1.301-.583 1.301-1.301V8.253a1.3 1.3 0 10-2.602 0v1.735c0 .719.583 1.301 1.301 1.301zm-5.205 0c.718 0 1.301-.583 1.301-1.301V8.253a1.301 1.301 0 00-2.603 0v1.735c0 .719.583 1.301 1.302 1.301zm-5.206 0c.719 0 1.301-.583 1.301-1.301V8.253a1.3 1.3 0 10-2.602 0v1.735a1.3 1.3 0 001.301 1.301zm-5.206 0c.719 0 1.302-.583 1.302-1.301V8.253a1.301 1.301 0 00-2.603 0v1.735c0 .719.583 1.301 1.301 1.301zm-5.205 0c.718 0 1.301-.583 1.301-1.301V8.253a1.301 1.301 0 00-2.602 0v1.735a1.3 1.3 0 001.301 1.301zm-5.205 0c.718 0 1.301-.583 1.301-1.301V8.253a1.301 1.301 0 00-2.603 0v1.735c0 .719.583 1.301 1.302 1.301zm37.306 46.839h10.411a1.3 1.3 0 100-2.602H49.876a1.301 1.301 0 100 2.602zm0-6.939h10.411a1.3 1.3 0 100-2.602H49.876a1.302 1.302 0 100 2.602zm0-6.939h10.411a1.301 1.301 0 000-2.602H49.876a1.301 1.301 0 100 2.602zm0-6.939h10.411a1.301 1.301 0 000-2.603H49.876a1.302 1.302 0 100 2.603zm0-6.939h10.411a1.301 1.301 0 000-2.602H49.876a1.301 1.301 0 100 2.602zm0-6.94h10.411a1.3 1.3 0 100-2.602H49.876a1.302 1.302 0 100 2.602zm-3.904-6.938h18.219v44.462a3.834 3.834 0 00-.434.183 3.9 3.9 0 00-3.47 0 3.883 3.883 0 00-3.47 0 3.887 3.887 0 00-3.471 0 3.9 3.9 0 00-3.47 0 3.883 3.883 0 00-3.47 0 3.834 3.834 0 00-.434-.183V16.494zM7.797 2.615h35.572v58.341a3.759 3.759 0 00-.434.183 3.883 3.883 0 00-3.037-.183v-.659a1.3 1.3 0 10-2.602 0v.459a3.89 3.89 0 00-1.302.383 3.884 3.884 0 00-1.301-.383v-.459a1.301 1.301 0 00-2.603 0v.659a3.866 3.866 0 00-2.603 0v-.659a1.3 1.3 0 10-2.602 0v.459c-.455.05-.895.181-1.302.383a3.884 3.884 0 00-1.301-.383v-.459a1.301 1.301 0 00-2.603 0v.659a3.866 3.866 0 00-2.603 0v-.659a1.301 1.301 0 00-2.603 0v.459c-.454.05-.894.181-1.301.383a3.884 3.884 0 00-1.301-.383v-.459a1.301 1.301 0 00-2.603 0v.659a3.871 3.871 0 00-3.037.183 3.759 3.759 0 00-.434-.183V2.615zm58.566 66.789h-.006l-60.722.001-.006-.001a1.298 1.298 0 01-.698-2.397 1.3 1.3 0 00.432-1.736 1.302 1.302 0 011.133-1.938c.409 0 .697.182.867.334a1.3 1.3 0 001.738 0c.17-.152.458-.334.866-.334s.696.182.866.334a1.3 1.3 0 001.738 0c.17-.152.458-.334.867-.334.408 0 .696.182.866.334a1.3 1.3 0 001.738 0 1.289 1.289 0 011.733 0 1.3 1.3 0 001.737 0c.17-.152.458-.334.867-.334.408 0 .696.182.866.334a1.3 1.3 0 001.738 0 1.286 1.286 0 011.733 0 1.3 1.3 0 001.738 0c.17-.152.458-.334.866-.334s.696.182.866.334a1.3 1.3 0 001.738 0c.17-.152.458-.334.866-.334.409 0 .697.182.867.334a1.3 1.3 0 001.738 0c.17-.152.458-.334.866-.334s.697.182.866.334a1.302 1.302 0 001.739 0 1.28 1.28 0 01.866-.334c.408 0 .696.182.866.334a1.3 1.3 0 001.738 0c.17-.152.458-.334.867-.334.407 0 .696.182.865.334a1.302 1.302 0 001.739 0c.169-.152.458-.334.866-.334s.696.182.866.334a1.3 1.3 0 001.738 0c.17-.152.458-.334.867-.334.408 0 .696.182.866.334a1.3 1.3 0 001.738 0 1.289 1.289 0 011.733 0 1.3 1.3 0 001.737 0 1.286 1.286 0 011.733 0 1.3 1.3 0 001.738 0 1.286 1.286 0 011.733 0 1.3 1.3 0 001.738 0c.17-.152.458-.334.866-.334s.696.182.866.334a1.3 1.3 0 001.738 0c.17-.152.458-.334.867-.334a1.302 1.302 0 011.133 1.938 1.3 1.3 0 00.432 1.736 1.298 1.298 0 01-.699 2.397z"/></svg>