<svg xmlns="http://www.w3.org/2000/svg" width="81" height="84"><path fill-rule="evenodd" fill="#818181" d="M15.658 16.529l20.449 6.146.675-2.198-21.683-6.516-9.225 5.269 1.16 1.989 8.111-4.632a.652.652 0 01.512-.057l.001-.001zm20.694 7.565l-20.803-6.252-8.429 4.814a.654.654 0 01-.888-.237l-1.81-3.105a.639.639 0 01.24-.878l10.018-5.721a.652.652 0 01.527-.067l22.575 6.784a.643.643 0 01.434.803l-1.052 3.43a.652.652 0 01-.812.429zm33.997 55.828v-5.97c0-.085.016-.167.047-.242l.807-2.63-21.682-6.516-9.225 5.267.688 1.182a.63.63 0 01.087.32h.003v8.589a.65.65 0 01-.653.646H36.58a.65.65 0 01-.653-.646v-5.97c0-.085.017-.167.048-.242l.807-2.63-21.683-6.516-9.225 5.267.689 1.182c.058.1.086.211.086.32h.003v8.589a.65.65 0 01-.653.646H1.302v2.135h78.374v-2.135h-8.674a.65.65 0 01-.653-.646zm1.306-5.882v5.235h8.674a.65.65 0 01.654.647v3.427a.651.651 0 01-.654.648H.648a.65.65 0 01-.653-.648v-3.427a.65.65 0 01.653-.647h4.697v-7.774l-.923-1.585a.64.64 0 01.24-.879l10.018-5.72a.648.648 0 01.527-.067l22.575 6.784a.643.643 0 01.434.803l-.983 3.203v5.235h2.534v-7.774l-.924-1.585a.642.642 0 01.24-.879l10.018-5.72a.65.65 0 01.528-.067l22.575 6.784a.643.643 0 01.434.803l-.983 3.203zm-52.084 5.882v-7.288a.65.65 0 01.865-.612l11.001 2.613c.298.07.5.335.5.627h.002v4.66a.65.65 0 01-.653.646H20.224a.65.65 0 01-.653-.646zm1.306-6.471v5.824h9.756v-3.506l-9.756-2.318zm33.116 6.471v-7.288a.65.65 0 01.864-.612l11.001 2.613c.299.07.5.335.5.627h.003v4.66a.65.65 0 01-.653.646H54.646a.65.65 0 01-.653-.646zm1.306-6.471v5.824h9.756v-3.506l-9.756-2.318zm-5.22-12.645l20.45 6.146.674-2.198-21.682-6.516-9.225 5.268 1.16 1.99 8.111-4.632a.655.655 0 01.512-.058zm20.695 7.565l-20.803-6.252-8.43 4.814a.655.655 0 01-.888-.237l-1.81-3.105a.642.642 0 01.24-.879l10.018-5.721a.658.658 0 01.528-.066l22.575 6.784a.642.642 0 01.434.802l-1.053 3.431a.651.651 0 01-.811.429zm-20.695-13.89l20.45 6.145.674-2.197-21.682-6.516-9.225 5.268 1.16 1.99 8.111-4.632a.655.655 0 01.512-.058zm20.695 7.564l-20.803-6.251-8.43 4.814a.655.655 0 01-.888-.238l-1.81-3.104a.642.642 0 01.24-.879l10.018-5.72a.654.654 0 01.528-.067l22.575 6.784a.643.643 0 01.434.803l-1.053 3.429a.65.65 0 01-.811.429zm-20.695-13.89l20.45 6.146.674-2.197-21.682-6.516-9.225 5.268 1.16 1.989 8.111-4.631a.651.651 0 01.512-.058v-.001zm20.695 7.566l-20.803-6.252-8.43 4.813a.654.654 0 01-.888-.237l-1.81-3.105a.64.64 0 01.24-.878l10.018-5.721a.658.658 0 01.528-.067l22.575 6.784a.643.643 0 01.434.803l-1.053 3.43a.652.652 0 01-.811.43zM50.079 41.83l20.45 6.145.674-2.197-21.682-6.515-9.225 5.268 1.16 1.989 8.111-4.631a.647.647 0 01.512-.058v-.001zm20.695 7.565l-20.803-6.252-8.43 4.814a.655.655 0 01-.888-.237l-1.81-3.104a.641.641 0 01.24-.879l10.018-5.721a.65.65 0 01.528-.067l22.575 6.784a.643.643 0 01.434.803l-1.053 3.43a.651.651 0 01-.811.429zm-20.695-13.89l20.45 6.145.674-2.197-21.682-6.516-9.225 5.268 1.16 1.99 8.111-4.632a.655.655 0 01.512-.058zm20.695 7.565l-20.803-6.251-8.43 4.813a.655.655 0 01-.888-.237l-1.81-3.105a.642.642 0 01.24-.879l10.018-5.721a.654.654 0 01.528-.066l22.575 6.784a.643.643 0 01.434.803l-1.053 3.429a.65.65 0 01-.811.43zM50.079 29.179l20.45 6.146.674-2.197-21.682-6.516-9.225 5.268 1.16 1.99 8.111-4.633a.655.655 0 01.512-.057v-.001zm20.695 7.566l-20.803-6.252-8.43 4.814a.655.655 0 01-.888-.237l-1.81-3.105a.642.642 0 01.24-.879l10.018-5.72a.654.654 0 01.528-.068l22.575 6.785a.643.643 0 01.434.803l-1.053 3.43a.651.651 0 01-.811.429zM50.079 22.854L70.529 29l.674-2.197-21.682-6.516-9.225 5.268 1.16 1.99 8.111-4.632a.655.655 0 01.512-.058v-.001zm20.695 7.566l-20.803-6.253-8.43 4.814a.654.654 0 01-.888-.237l-1.81-3.104a.642.642 0 01.24-.879l10.018-5.721a.658.658 0 01.528-.067l22.575 6.785a.643.643 0 01.434.803l-1.053 3.429a.651.651 0 01-.811.43zM50.079 3.879l20.45 6.146.674-2.198-21.682-6.516-9.225 5.268 1.16 1.99 8.111-4.632a.655.655 0 01.512-.058zm20.695 7.565L49.971 5.192l-8.43 4.814a.654.654 0 01-.888-.238l-1.81-3.104a.642.642 0 01.24-.879L49.101.064a.658.658 0 01.528-.067l22.575 6.785a.643.643 0 01.434.803l-1.053 3.43a.651.651 0 01-.811.429zm-20.695-1.24l20.45 6.146.674-2.198-21.682-6.516-9.225 5.269 1.16 1.989 8.111-4.632a.65.65 0 01.512-.057v-.001zm20.695 7.565l-20.803-6.252-8.43 4.814a.655.655 0 01-.888-.237l-1.81-3.105a.64.64 0 01.24-.878L49.101 6.39a.65.65 0 01.528-.067l22.575 6.784a.643.643 0 01.434.803l-1.053 3.43a.651.651 0 01-.811.429zm-20.695-1.24l20.45 6.146.674-2.198-21.682-6.516-9.225 5.269 1.16 1.989 8.111-4.632a.65.65 0 01.512-.057v-.001zm20.695 7.565l-20.803-6.252-8.43 4.814a.654.654 0 01-.888-.237l-1.81-3.105a.64.64 0 01.24-.878l10.018-5.721a.654.654 0 01.528-.067l22.575 6.784a.643.643 0 01.434.803l-1.053 3.43a.651.651 0 01-.811.429zM15.658 60.806l20.449 6.146.675-2.198-21.683-6.516-9.225 5.268 1.16 1.99 8.111-4.632a.656.656 0 01.512-.058h.001zm20.694 7.565l-20.803-6.252-8.429 4.814a.654.654 0 01-.888-.237l-1.81-3.105a.64.64 0 01.24-.879l10.018-5.721a.655.655 0 01.527-.066l22.575 6.784a.642.642 0 01.434.802l-1.052 3.431a.652.652 0 01-.812.429zm-20.694-13.89l20.449 6.145.675-2.197-21.683-6.516-9.225 5.268 1.16 1.99 8.111-4.632a.656.656 0 01.512-.058h.001zm20.694 7.564l-20.803-6.251-8.429 4.814a.655.655 0 01-.888-.238l-1.81-3.104a.64.64 0 01.24-.879l10.018-5.72a.652.652 0 01.527-.067l22.575 6.784a.643.643 0 01.434.803l-1.052 3.429a.65.65 0 01-.812.429zm-20.694-13.89l20.449 6.146.675-2.197-21.683-6.516-9.225 5.268 1.16 1.989 8.111-4.631a.652.652 0 01.512-.058l.001-.001zm20.694 7.566l-20.803-6.252-8.429 4.813a.653.653 0 01-.888-.237l-1.81-3.105a.639.639 0 01.24-.878l10.018-5.721a.656.656 0 01.527-.067l22.575 6.784a.643.643 0 01.434.803l-1.052 3.43a.653.653 0 01-.812.43zM15.658 41.83l20.449 6.145.675-2.197-21.683-6.515-9.225 5.268 1.16 1.989 8.111-4.631a.648.648 0 01.512-.058l.001-.001zm20.694 7.565l-20.803-6.252-8.429 4.814a.654.654 0 01-.888-.237l-1.81-3.104a.64.64 0 01.24-.879l10.018-5.721a.648.648 0 01.527-.067l22.575 6.784a.643.643 0 01.434.803l-1.052 3.43a.652.652 0 01-.812.429zm-20.694-13.89l20.449 6.145.675-2.197-21.683-6.516-9.225 5.268 1.16 1.99 8.111-4.632a.656.656 0 01.512-.058h.001zm20.694 7.565l-20.803-6.251-8.429 4.813a.654.654 0 01-.888-.237l-1.81-3.105a.64.64 0 01.24-.879L14.68 31.69a.651.651 0 01.527-.066l22.575 6.784a.643.643 0 01.434.803l-1.052 3.429a.651.651 0 01-.812.43zM15.658 29.179l20.449 6.146.675-2.197-21.683-6.516-9.225 5.268 1.16 1.99 8.111-4.633a.656.656 0 01.512-.057l.001-.001zm20.694 7.566l-20.803-6.252-8.429 4.814a.654.654 0 01-.888-.237l-1.81-3.105a.64.64 0 01.24-.879l10.018-5.72a.652.652 0 01.527-.068l22.575 6.785a.643.643 0 01.434.803l-1.052 3.43a.652.652 0 01-.812.429zM15.658 22.854L36.107 29l.675-2.197-21.683-6.516-9.225 5.268 1.16 1.99 8.111-4.632a.656.656 0 01.512-.058l.001-.001zm20.694 7.566l-20.803-6.253-8.429 4.814a.654.654 0 01-.888-.237l-1.81-3.104a.64.64 0 01.24-.879L14.68 19.04a.656.656 0 01.527-.067l22.575 6.785a.643.643 0 01.434.803l-1.052 3.429a.652.652 0 01-.812.43z"/></svg>