<svg xmlns="http://www.w3.org/2000/svg" width="90" height="55"><path fill-rule="evenodd" fill="#818181" d="M1.042 52.968h1.197v-25.55l-.629.286a1.067 1.067 0 01-.994-.063 1.005 1.005 0 01-.48-.852v-4.056c0-.392.233-.749.598-.915l3.565-1.623v-6.558c0-.558.464-1.01 1.035-1.01h6.158c.572 0 1.035.452 1.035 1.01v2.814l19.309-8.788a1.06 1.06 0 01.944.034l18.592 10.186c.327.178.528.515.528.88v4.056c0 .359-.195.69-.512.871a1.058 1.058 0 01-1.03.009l-.56-.307v29.576h1.024c.572 0 1.035.453 1.035 1.01 0 .558-.463 1.01-1.035 1.01H1.042a1.023 1.023 0 01-1.035-1.01c0-.557.464-1.01 1.035-1.01zm87.986-9.543h-1.117V18.986l.587.274a.977.977 0 00.927-.061.963.963 0 00.447-.814v-3.88a.963.963 0 00-.557-.875l-3.325-1.552V5.804a.966.966 0 00-.966-.966h-5.743a.967.967 0 00-.966.966v2.692L60.308.091a.964.964 0 00-.882.033l-17.34 9.741a.97.97 0 00-.405.441l1.844 1.035v-.068L59.94 2.05l28.002 13.07v1.748L60.308 3.97a.97.97 0 00-.882.033l-14.481 8.136 1.971 1.108L59.94 5.93l26.04 12.154v25.341H52.314v1.931h36.714a.965.965 0 100-1.931zM64.764 11.061l-.005-.042a.631.631 0 00-.028-.137l-.016-.053-.013-.035-.022-.052-.016-.035a1.01 1.01 0 00-.025-.045l-.023-.039-.026-.038a.833.833 0 00-.03-.04l-.025-.031-.037-.04-.027-.027a.7.7 0 00-.04-.037l-.032-.026-.04-.03-.041-.028-.036-.022-.052-.027-.02-.011-3.339-1.558a.964.964 0 00-.983.099c-.018.009-.035.017-.052.027l-10.388 5.835 1.971 1.108 3.713-2.086v9.488h-.857c0 .356-.167 1.281-.478 1.462-.564.33-.922.197-1.483.244v.225h11.488a.965.965 0 00.966-.966V11.142l-.002-.023-.002-.058zm-7.701 12.118V12.606l3.445-1.936 2.329 1.087v11.422h-5.774zm26.459-3.898l-15.379-7.179a.967.967 0 00-.446-.09.97.97 0 00-.999.965v11.167c0 .534.434.966.966.966h15.45a.965.965 0 00.965-.966v-3.988a.964.964 0 00-.557-.875zm-14.892-4.82l5.793 2.704v6.014H68.63v-8.718zm13.518 8.718h-5.794v-5.112l5.794 2.704v2.408zm.966 3.835h-15.45a.967.967 0 00-.966.965v12.563c0 .534.434.966.966.966h15.45a.965.965 0 00.965-.966V27.979a.966.966 0 00-.965-.965zM68.63 28.945h5.793v10.632H68.63V28.945zm13.518 10.632h-5.794V28.945h5.794v10.632zM63.802 27.014H52.314v1.931h2.818v10.632h-2.818v1.931h11.488a.965.965 0 00.966-.966V27.979a.966.966 0 00-.966-.965zm-.965 12.563h-5.774V28.945h5.774v10.632zm17.41-30.214V6.77h3.812v4.407l-3.814-1.78.002-.034zm-53.189 9.769l.005-.044a.9.9 0 01.019-.102l.011-.041a1.156 1.156 0 01.054-.146l.018-.036.026-.048.025-.04.027-.039.033-.043.027-.032a.805.805 0 01.039-.042c.01-.01.019-.02.03-.029l.042-.038.035-.028.042-.031a1.103 1.103 0 01.083-.051.593.593 0 01.056-.029l.021-.011 3.58-1.629c.357-.163.759-.11 1.055.103.018.009.037.017.055.027l12.776 6.999c.345.189.536.542.528.903v8.106c0 .557-.463 1.01-1.035 1.01H28.089a1.023 1.023 0 01-1.035-1.01V19.217l.001-.024.003-.061zm16.517 6.141l-6.19-3.39v9.919h6.19v-6.529zm-8.261 6.529V20.748l-3.694-2.024-2.496 1.136v11.942h6.19zM6.946 27.726l16.489-7.505c.155-.07.318-.1.478-.094.582-.019 1.07.44 1.07 1.009v11.675c0 .557-.464 1.01-1.035 1.01H7.384a1.024 1.024 0 01-1.036-1.01v-4.17c0-.392.233-.749.598-.915zm15.966-5.039l-6.211 2.827v6.288h6.211v-9.115zM8.419 31.802h6.211v-5.345l-6.211 2.827v2.518zm-1.035 4.009h16.564c.571 0 1.035.452 1.035 1.01v13.134c0 .558-.464 1.01-1.035 1.01H7.384a1.023 1.023 0 01-1.036-1.01V36.821c0-.558.464-1.01 1.036-1.01zm15.528 2.019h-6.211v11.116h6.211V37.83zM8.419 48.946h6.211V37.83H8.419v11.116zm19.67-13.135H44.61c.572 0 1.035.452 1.035 1.01v13.134c0 .558-.463 1.01-1.035 1.01H28.089a1.022 1.022 0 01-1.035-1.01V36.821c0-.558.463-1.01 1.035-1.01zm15.486 2.019h-6.19v11.116h6.19V37.83zM29.124 48.946h6.19V37.83h-6.19v11.116zM10.457 17.358v-2.712H6.37v4.607l4.089-1.861-.002-.034zm39.373 1.996l-17.6-9.642L2.207 23.376v1.828l29.629-13.485a1.059 1.059 0 01.944.034l17.05 9.34v-1.739zm-2.103 33.614V22.291l.001-.032-15.498-8.491L4.31 26.475v26.493h43.417z"/></svg>