<svg xmlns="http://www.w3.org/2000/svg" width="18" height="26"><path fill-rule="evenodd" fill="#FFF" d="M6.448 22.883c0 1.361 1.117 2.584 2.539 2.584 1.336 0 2.538-1.137 2.538-2.584 0-1.361-1.117-2.584-2.538-2.584-1.337 0-2.539 1.137-2.539 2.584zm4.823-4.566c0-1.188.321-2.17 1.083-2.842 2.267-1.964 5.056-3.79 5.056-6.805 0-4.772-4.041-7.908-8.423-7.908C4.384.762.932 4.156.881 8.67h5.06c.051-1.809 1.303-3.153 3.046-3.153 1.81 0 3.333 1.43 3.333 3.153 0 2.222-2.538 3.153-3.689 4.514-1.286 1.395-1.929 3.1-1.929 5.133h4.569z"/></svg>