<svg xmlns="http://www.w3.org/2000/svg" width="25" height="25" viewBox="0 0 25 25"><g><g><path fill="#818181" d="M24.548 24.099a.452.452 0 1 1 0 .903H.448a.451.451 0 1 1 0-.903h.228a1.353 1.353 0 0 1 .26-1.347 1.357 1.357 0 0 1 .867-1.587V.454c0-.249.203-.451.453-.451H15.51c.249 0 .451.202.451.452v4.367h6.778c.25 0 .452.202.452.452v15.89a1.357 1.357 0 0 1 .868 1.587 1.348 1.348 0 0 1 .26 1.347zm-11.146-5.12a.452.452 0 0 1-.452-.452v-.603a.452.452 0 0 1 .904 0v.603c0 .249-.203.451-.452.451zm-1.808 0a.452.452 0 0 1-.452-.452v-.603a.452.452 0 0 1 .904 0v.603c0 .249-.202.451-.452.451zm-1.807 0a.452.452 0 0 1-.452-.452v-.603a.452.452 0 0 1 .904 0v.603c0 .249-.203.451-.452.451zm-1.808 0a.452.452 0 0 1-.452-.452v-.603a.452.452 0 0 1 .904 0v.603c0 .249-.202.451-.452.451zm-1.807 0a.452.452 0 0 1-.452-.452v-.603a.452.452 0 0 1 .904 0v.603c0 .249-.203.451-.452.451zm-1.808 0a.452.452 0 0 1-.452-.452v-.603a.452.452 0 0 1 .904 0v.603c0 .249-.202.451-.452.451zm9.038-3.012a.452.452 0 0 1-.452-.452v-.602a.452.452 0 0 1 .904 0v.602c0 .25-.203.452-.452.452zm-1.808 0a.452.452 0 0 1-.452-.452v-.602a.452.452 0 0 1 .904 0v.602c0 .25-.202.452-.452.452zm-1.807 0a.452.452 0 0 1-.452-.452v-.602a.452.452 0 0 1 .904 0v.602c0 .25-.203.452-.452.452zm-1.808 0a.452.452 0 0 1-.452-.452v-.602a.452.452 0 0 1 .904 0v.602c0 .25-.202.452-.452.452zm-1.807 0a.452.452 0 0 1-.452-.452v-.602a.452.452 0 1 1 .904 0v.602c0 .25-.203.452-.452.452zm-1.808 0a.452.452 0 0 1-.452-.452v-.602a.452.452 0 0 1 .904 0v.602c0 .25-.202.452-.452.452zm9.038-3.012a.452.452 0 0 1-.452-.452V11.9a.452.452 0 0 1 .904 0v.603c0 .25-.203.452-.452.452zm-1.808 0a.452.452 0 0 1-.452-.452V11.9a.452.452 0 0 1 .904 0v.603c0 .25-.202.452-.452.452zm-1.807 0a.452.452 0 0 1-.452-.452V11.9a.452.452 0 0 1 .904 0v.603c0 .25-.203.452-.452.452zm-1.808 0a.452.452 0 0 1-.452-.452V11.9a.452.452 0 0 1 .904 0v.603c0 .25-.202.452-.452.452zm-1.807 0a.451.451 0 0 1-.452-.452V11.9a.452.452 0 1 1 .904 0v.603c0 .25-.203.452-.452.452zm-1.808 0a.452.452 0 0 1-.452-.452V11.9a.452.452 0 0 1 .904 0v.603c0 .25-.202.452-.452.452zm9.038-3.012a.452.452 0 0 1-.452-.452V8.89a.451.451 0 0 1 .904 0v.602c0 .25-.203.452-.452.452zm-1.808 0a.452.452 0 0 1-.452-.452V8.89a.451.451 0 0 1 .904 0v.602c0 .25-.202.452-.452.452zm-1.807 0a.452.452 0 0 1-.452-.452V8.89a.451.451 0 0 1 .904 0v.602c0 .25-.203.452-.452.452zm-1.808 0a.452.452 0 0 1-.452-.452V8.89a.451.451 0 0 1 .904 0v.602c0 .25-.202.452-.452.452zm-1.807 0a.452.452 0 0 1-.452-.452V8.89a.451.451 0 0 1 .904 0v.602c0 .25-.203.452-.452.452zm-1.808 0a.452.452 0 0 1-.452-.452V8.89a.451.451 0 0 1 .904 0v.602c0 .25-.202.452-.452.452zm9.038-3.012a.452.452 0 0 1-.452-.452v-.602a.452.452 0 0 1 .904 0v.602c0 .25-.203.452-.452.452zm-1.808 0a.452.452 0 0 1-.452-.452v-.602a.452.452 0 0 1 .904 0v.602c0 .25-.202.452-.452.452zm-1.807 0a.452.452 0 0 1-.452-.452v-.602a.452.452 0 0 1 .904 0v.602c0 .25-.203.452-.452.452zm-1.808 0a.452.452 0 0 1-.452-.452v-.602a.452.452 0 0 1 .904 0v.602c0 .25-.202.452-.452.452zm-1.807 0a.452.452 0 0 1-.452-.452v-.602a.452.452 0 1 1 .904 0v.602c0 .25-.203.452-.452.452zm-1.808 0a.452.452 0 0 1-.452-.452v-.602a.452.452 0 0 1 .904 0v.602c0 .25-.202.452-.452.452zm9.038-3.012a.452.452 0 0 1-.452-.452v-.602a.451.451 0 0 1 .904 0v.602c0 .25-.203.452-.452.452zm-1.808 0a.452.452 0 0 1-.452-.452v-.602a.451.451 0 0 1 .904 0v.602c0 .25-.202.452-.452.452zm-1.807 0a.452.452 0 0 1-.452-.452v-.602a.451.451 0 0 1 .904 0v.602c0 .25-.203.452-.452.452zm-1.808 0a.452.452 0 0 1-.452-.452v-.602a.451.451 0 0 1 .904 0v.602c0 .25-.202.452-.452.452zm-1.807 0a.452.452 0 0 1-.452-.452v-.602a.451.451 0 0 1 .904 0v.602c0 .25-.203.452-.452.452zm-1.808 0a.452.452 0 0 1-.452-.452v-.602a.451.451 0 0 1 .904 0v.602c0 .25-.202.452-.452.452zm12.954 16.264a.452.452 0 1 1 0-.904h3.615a.452.452 0 1 1 0 .904zm0-2.41a.452.452 0 1 1 0-.903h3.615a.452.452 0 0 1 0 .904zm0-2.41a.452.452 0 1 1 0-.902h3.615a.452.452 0 1 1 0 .903zm0-2.408a.452.452 0 1 1 0-.904h3.615a.452.452 0 1 1 0 .904zm0-2.41a.452.452 0 0 1 0-.903h3.615a.452.452 0 1 1 0 .904zm0-2.41a.452.452 0 1 1 0-.903h3.615a.452.452 0 1 1 0 .904zm-1.355-2.409v15.438c.05.019.101.04.15.065a1.35 1.35 0 0 1 1.205 0 1.35 1.35 0 0 1 1.205 0 1.349 1.349 0 0 1 1.205 0 1.35 1.35 0 0 1 1.205 0 1.35 1.35 0 0 1 1.205 0c.049-.025.1-.046.15-.065V5.726zM2.707.907v20.257c.052.019.102.04.151.065a1.35 1.35 0 0 1 1.054-.065v-.228a.452.452 0 1 1 .904 0v.16c.158.017.31.062.452.133.141-.071.294-.116.452-.134v-.159a.452.452 0 0 1 .904 0v.228a1.349 1.349 0 0 1 .903 0v-.228a.452.452 0 1 1 .904 0v.16c.158.017.31.062.452.133.141-.071.294-.116.452-.134v-.159a.452.452 0 1 1 .904 0v.228a1.35 1.35 0 0 1 .903 0v-.228a.452.452 0 1 1 .904 0v.16c.158.017.31.062.452.133.141-.071.294-.116.452-.134v-.159a.452.452 0 1 1 .904 0v.229a1.349 1.349 0 0 1 1.054.064c.049-.025.1-.046.15-.065V.907zM23.043 24.1a.453.453 0 0 0 .242-.833.451.451 0 0 1-.15-.603.452.452 0 0 0-.694-.557.452.452 0 0 1-.604 0 .444.444 0 0 0-.601 0 .452.452 0 0 1-.604 0 .444.444 0 0 0-.601 0 .452.452 0 0 1-.604 0 .444.444 0 0 0-.601 0 .452.452 0 0 1-.604 0 .445.445 0 0 0-.601 0 .452.452 0 0 1-.604 0 .445.445 0 0 0-.601 0 .452.452 0 0 1-.604 0 .444.444 0 0 0-.602 0 .452.452 0 0 1-.603 0 .444.444 0 0 0-.601 0 .453.453 0 0 1-.604 0 .444.444 0 0 0-.602 0 .452.452 0 0 1-.603 0 .444.444 0 0 0-.602 0 .452.452 0 0 1-.603 0 .445.445 0 0 0-.602 0 .452.452 0 0 1-.603 0 .444.444 0 0 0-.602 0 .452.452 0 0 1-.603 0 .444.444 0 0 0-.602 0 .452.452 0 0 1-.603 0 .444.444 0 0 0-.602 0 .452.452 0 0 1-.603 0 .445.445 0 0 0-.602 0 .452.452 0 0 1-.604 0 .444.444 0 0 0-.601 0 .452.452 0 0 1-.604 0 .444.444 0 0 0-.601 0 .452.452 0 0 1-.604 0 .452.452 0 0 0-.694.557.452.452 0 0 1-.15.603.451.451 0 0 0 .242.833h21.089z"/></g></g></svg>