<svg xmlns="http://www.w3.org/2000/svg" style="display: none;">
    <defs>
        <filter filterUnits="userSpaceOnUse" id="FilterWhatsappBulk" x="0.5px" y="0.5px" width="27px" height="27px"  >
            <feOffset in="SourceAlpha" dx="0" dy="0" />
            <feGaussianBlur result="blurOut" stdDeviation="2" />
            <feFlood flood-color="rgb(0, 0, 0)" result="floodOut" />
            <feComposite operator="atop" in="floodOut" in2="blurOut" />
            <feComponentTransfer><feFuncA type="linear" slope="0.41"/></feComponentTransfer>
            <feMerge>
                <feMergeNode/>
                <feMergeNode in="SourceGraphic"/>
            </feMerge>
        </filter>
    </defs>
    <symbol id="email" viewBox="0 0 15 11">
        <title>email</title>
        <path d="M0.794,10.758 L14.325,10.758 C14.362,10.758 14.398,10.750 14.430,10.735 L9.794,6.388 L7.559,9.093 L5.325,6.388 L0.689,10.735 C0.721,10.750 0.757,10.758 0.794,10.758 ZM0.547,10.383 L4.580,5.486 L0.547,0.604 L0.547,10.383 ZM0.869,0.240 L0.985,0.328 L7.559,7.340 L14.134,0.328 L14.250,0.240 L0.869,0.240 ZM14.572,0.604 L10.539,5.486 L14.572,10.383 L14.572,0.604 Z" />
    </symbol>
    <symbol id="telegram" viewBox="0 0 300 300">
        <title>telegram</title>
        <path d="M5.299,144.645l69.126,25.8l26.756,86.047c1.712,5.511,8.451,7.548,12.924,3.891l38.532-31.412 c4.039-3.291,9.792-3.455,14.013-0.391l69.498,50.457c4.785,3.478,11.564,0.856,12.764-4.926L299.823,29.22 c1.31-6.316-4.896-11.585-10.91-9.259L5.218,129.402C-1.783,132.102-1.722,142.014,5.299,144.645z M96.869,156.711l135.098-83.207 c2.428-1.491,4.926,1.792,2.841,3.726L123.313,180.87c-3.919,3.648-6.447,8.53-7.163,13.829l-3.798,28.146 c-0.503,3.758-5.782,4.131-6.819,0.494l-14.607-51.325C89.253,166.16,91.691,159.907,96.869,156.711z"/>
    </symbol>
    <symbol id="whatsapp" viewBox="0 0 18 18">
        <title>whatsapp</title>
        <path d="M9.152,16.946 C7.709,16.946 6.354,16.578 5.176,15.930 L0.622,17.378 L2.106,12.998 C1.357,11.768 0.927,10.325 0.927,8.783 C0.927,4.275 4.609,0.620 9.152,0.620 C13.694,0.620 17.376,4.275 17.376,8.783 C17.376,13.291 13.694,16.946 9.152,16.946 ZM9.152,1.920 C5.338,1.920 2.236,4.998 2.236,8.783 C2.236,10.284 2.725,11.675 3.554,12.807 L2.690,15.356 L5.347,14.511 C6.438,15.228 7.747,15.646 9.152,15.646 C12.964,15.646 16.066,12.567 16.066,8.783 C16.066,4.998 12.964,1.920 9.152,1.920 ZM11.826,12.565 C11.456,12.599 11.456,12.866 9.406,12.066 C7.356,11.264 6.063,9.178 5.962,9.044 C5.861,8.912 5.140,7.960 5.140,6.975 C5.140,5.991 5.660,5.507 5.845,5.307 C6.030,5.106 6.433,5.057 6.433,5.057 C6.433,5.057 6.651,5.022 6.768,5.022 C6.887,5.022 7.055,5.007 7.222,5.406 C7.390,5.808 7.794,6.792 7.844,6.892 C7.895,6.992 7.928,7.109 7.861,7.242 C7.794,7.376 7.760,7.459 7.659,7.577 C7.558,7.693 7.448,7.837 7.356,7.927 C7.257,8.027 7.151,8.135 7.268,8.335 C7.387,8.535 7.791,9.190 8.390,9.721 C9.160,10.402 9.810,10.614 10.012,10.713 C10.213,10.814 10.331,10.797 10.448,10.663 C10.566,10.530 10.953,10.079 11.087,9.879 C11.221,9.679 11.356,9.712 11.541,9.779 C11.725,9.845 12.717,10.330 12.919,10.430 C13.119,10.530 13.254,10.580 13.305,10.663 C13.355,10.746 13.355,11.147 13.187,11.615 C13.019,12.082 12.195,12.533 11.826,12.565 Z" />
    </symbol>
    <symbol id="whatsapp-bulk" viewBox="0 0 28 28">
        <title>whatsapp-bulk</title>
        <g filter="url(#FilterWhatsappBulk)">
            <path fill-rule="evenodd"  stroke-width="1px" stroke="rgb(255, 255, 255)" fill="rgb(41, 167, 26)" d="M13.684,23.40 C12.48,23.40 10.452,22.638 9.15,21.861 L3.502,23.499 C4.388,21.450 5.453,18.671 5.475,18.617 C4.429,17.28 3.873,15.171 3.873,13.269 C3.873,7.873 8.265,3.499 13.684,3.499 C16.393,3.499 18.845,4.592 20.621,6.361 C22.396,8.129 23.495,10.571 23.495,13.269 C23.495,18.665 19.102,23.40 13.684,23.40 L13.684,23.40 Z" />
        </g>
        <g transform="translate(4 4)">
            <path fill-rule="evenodd"  fill="rgb(255, 255, 255)" d="M10.184,19.540 C8.548,19.540 6.952,19.138 5.515,18.361 L0.2,19.999 C0.497,18.856 0.959,17.747 1.405,16.581 L1.406,16.582 C1.616,16.31 1.819,15.501 1.975,15.117 C0.929,13.528 0.373,11.671 0.373,9.769 C0.373,4.373 4.765,0.0 10.184,0.0 C12.893,0.0 15.345,1.92 17.121,2.861 C18.896,4.629 19.995,7.71 19.995,9.769 C19.995,15.165 15.602,19.540 10.184,19.540 L10.184,19.540 ZM6.549,10.300 C5.956,9.468 5.458,8.556 5.443,7.830 C5.407,6.7 6.539,5.382 6.918,5.382 C7.207,5.382 7.737,5.295 7.921,5.730 C8.338,6.714 8.510,7.139 8.626,7.484 C8.787,7.963 8.726,8.20 8.631,8.187 C8.449,8.508 7.831,8.949 7.887,9.117 C8.278,10.287 10.311,12.86 11.542,12.313 C11.717,12.345 12.70,11.675 12.364,11.450 C12.517,11.334 12.636,10.994 13.134,11.86 C13.494,11.153 13.975,11.549 14.870,11.903 C15.312,12.77 15.378,12.467 15.285,12.740 C15.176,13.58 14.978,14.330 13.159,14.546 C12.531,14.621 11.714,14.355 10.915,13.977 C8.770,12.962 7.894,12.189 6.549,10.300 L6.549,10.300 ZM10.184,18.48 C14.775,18.48 18.496,14.342 18.496,9.769 C18.496,7.483 17.565,5.414 16.61,3.915 C14.557,2.417 12.479,1.491 10.184,1.491 C5.592,1.491 1.871,5.197 1.871,9.769 C1.871,11.818 2.507,13.324 3.685,14.955 C3.255,15.865 2.946,16.741 2.588,17.676 L5.698,16.752 C7.148,17.599 8.481,18.48 10.184,18.48 L10.184,18.48 Z" />
        </g>
    </symbol>
    <symbol id="loupe" viewBox="0 0 17 21">
        <title>loupe</title>
        <path d="M16.221,20.674 C15.427,21.241 14.334,21.042 13.780,20.229 L10.804,15.842 C7.463,17.114 3.585,16.007 1.450,12.878 C-1.084,9.164 -0.195,4.051 3.435,1.457 C7.065,-1.135 12.062,-0.226 14.596,3.487 C16.836,6.770 16.397,11.142 13.759,13.904 L16.655,18.176 C17.210,18.989 17.015,20.106 16.221,20.674 ZM12.788,4.885 C10.981,2.282 7.163,1.822 4.801,3.544 C2.439,5.265 1.861,8.660 3.510,11.126 C5.158,13.590 8.410,14.194 10.771,12.472 C13.134,10.751 14.595,7.490 12.788,4.885 Z" />
    </symbol>
    <symbol id="phone" viewBox="0 0 19 18">
        <title>phone</title>
        <path d="M5.57834,13.31178c-2.27888,-2.19275 -5.6971,-6.94185 -4.55356,-10.48857c1.5666,-4.85606 3.85506,-2.68127 6.10918,-0.01687c1.48622,1.75758 -0.6086,2.49838 -1.81567,3.36846c-2.00308,2.30597 5.09175,9.39995 7.39746,7.3969c0.87007,-1.20646 1.61105,-3.30151 3.3685,-1.81582c2.66464,2.2548 4.83884,4.54254 -0.01726,6.10988c-3.5463,1.14332 -8.29582,-2.27467 -10.48865,-4.55397z"/>
    </symbol>
    <symbol id="quotes" viewBox="0 0 33 30">
        <title>quotes</title>
        <path d="M16.55154,-0.03832h-12.21325l-4.31065,29.30969h9.4194zM32.35709,-0.03832h-12.21336l-4.31053,29.30969h9.4194z"></path>
    </symbol>
    <symbol id="clock" viewBox="0 0 25 25">
        <title>clock</title>
        <path d="M12.49934,24.98667c-6.90365,0 -12.50015,-5.59686 -12.50015,-12.50009c0,-6.90371 5.5965,-12.50009 12.50015,-12.50009c6.90353,0 12.49981,5.59638 12.49981,12.50009c0,6.90322 -5.59628,12.50009 -12.49981,12.50009zM12.39851,2.41642c-5.57602,0 -10.09621,4.52009 -10.09621,10.096c0,5.5759 4.52019,10.09649 10.09621,10.09649c5.57579,0 10.09621,-4.52058 10.09621,-10.09649c0,-5.5759 -4.52042,-10.096 -10.09621,-10.096zM15.31618,14.99644h-3.81672c-0.52574,0 -0.95169,-0.42652 -0.95169,-0.95198v-5.78989c0,-0.52547 0.42595,-0.9515 0.95169,-0.9515c0.52563,0 0.95158,0.42603 0.95158,0.9515v4.8384h2.86514c0.5254,0 0.95158,0.42603 0.95158,0.9515c0,0.52547 -0.42618,0.95198 -0.95158,0.95198z"></path>
    </symbol>
    <symbol id="info" viewBox="0 0 25 25">
        <title>info</title>
        <path d="M12.499,24.986 C5.596,24.986 -0.001,19.389 -0.001,12.486 C-0.001,5.582 5.596,-0.014 12.499,-0.014 C19.403,-0.014 24.999,5.582 24.999,12.486 C24.999,19.389 19.403,24.986 12.499,24.986 ZM12.398,2.416 C6.822,2.416 2.302,6.936 2.302,12.512 C2.302,18.088 6.822,22.608 12.398,22.608 C17.974,22.608 22.495,18.088 22.495,12.512 C22.495,6.936 17.974,2.416 12.398,2.416 ZM13.817,8.586 C13.162,8.586 12.631,8.063 12.631,7.290 C12.631,6.518 13.162,5.994 13.817,5.994 C14.472,5.994 15.003,6.518 15.003,7.290 C15.003,8.063 14.472,8.586 13.817,8.586 ZM13.985,11.107 L12.261,17.372 C12.238,17.514 12.306,17.657 12.423,17.702 C12.549,17.751 12.816,17.570 13.030,17.313 L14.065,15.944 C14.094,16.173 14.047,16.577 14.047,16.730 C13.269,18.013 12.478,19.003 11.146,19.003 C10.237,18.840 9.864,18.124 10.061,17.395 L11.774,11.160 C11.815,11.008 11.746,10.844 11.619,10.796 C11.493,10.747 11.245,10.927 11.031,11.185 L9.996,12.554 C9.967,12.325 9.993,11.944 9.993,11.791 C10.771,10.508 12.048,9.495 12.915,9.495 C13.740,9.588 14.129,10.311 13.985,11.107 Z"/>
    </symbol>
    <symbol id="vk" viewBox="0 0 25 24">
        <title>vk</title>
        <path d="M3.02406,-0.00049h18.14655c1.67027,0 3.02433,1.3434 3.02433,3.00023v17.99995c0,1.65634 -1.35406,3.00023 -3.02433,3.00023h-18.14655c-1.67027,0 -3.02433,-1.34389 -3.02433,-3.00023v-17.99995c0,-1.65683 1.35406,-3.00023 3.02433,-3.00023zM16.0519,12.30023c-0.38372,-0.41774 -0.94414,-0.69461 -1.54587,-0.82963v-0.05606c0.42973,-0.1862 0.80498,-0.47819 1.05698,-0.87497c0.25177,-0.39629 0.38452,-0.84913 0.38452,-1.35754c0,-0.4387 -0.08789,-0.82573 -0.2702,-1.16207c-0.18276,-0.33585 -0.45719,-0.60443 -0.82695,-0.80477c-0.34206,-0.18669 -0.70736,-0.3144 -1.09795,-0.3729c-0.3907,-0.05801 -0.96405,-0.0931 -1.72188,-0.0931h-3.71361v10.50009h4.19895c0.71629,0 1.30657,-0.09944 1.7712,-0.23007c0.46452,-0.13015 0.89081,-0.36656 1.27911,-0.67463c0.32822,-0.2564 0.58926,-0.58932 0.78346,-0.98123c0.19409,-0.39191 0.28427,-0.85157 0.28427,-1.36875c0,-0.70972 -0.19844,-1.27711 -0.58205,-1.69437zM10.89577,8.65851h0.24719c0.46223,0 0.8099,0.00975 1.04347,0.01657c0.23335,0.00682 0.43568,0.05118 0.60654,0.12576c0.18036,0.07945 0.31322,0.20911 0.39883,0.38655c0.08549,0.17743 0.12817,0.35096 0.12817,0.51816c0,0.2291 -0.03925,0.42993 -0.11787,0.60248c-0.07862,0.17256 -0.22179,0.30807 -0.42984,0.40604c-0.18951,0.0892 -0.37319,0.15793 -0.55115,0.16671c-0.17796,0.00975 -0.48878,0.03363 -0.93235,0.03363h-0.39299zM13.80886,14.61608c-0.10872,0.19839 -0.28095,0.34901 -0.5167,0.45186c-0.26802,0.11699 -0.53146,0.21399 -0.79021,0.22325c-0.25898,0.01024 -0.72567,0.04923 -1.40041,0.04923h-0.20576v-2.69022h0.54543c0.46211,0 0.83073,0.00877 1.10584,0.0156c0.27489,0.00682 0.49095,0.04338 0.64819,0.10383c0.25875,0.09359 0.45296,0.23202 0.58228,0.41384c0.12932,0.18231 0.19421,0.43529 0.19421,0.757c0,0.25201 -0.05436,0.4777 -0.16285,0.6756z"></path>
    </symbol>
    <symbol id="instagram" viewBox="0 0 169.063 169.063">
        <title>instagram</title>
        <path d="M122.406,0H46.654C20.929,0,0,20.93,0,46.655v75.752c0,25.726,20.929,46.655,46.654,46.655h75.752 c25.727,0,46.656-20.93,46.656-46.655V46.655C169.063,20.93,148.133,0,122.406,0z M154.063,122.407 c0,17.455-14.201,31.655-31.656,31.655H46.654C29.2,154.063,15,139.862,15,122.407V46.655C15,29.201,29.2,15,46.654,15h75.752 c17.455,0,31.656,14.201,31.656,31.655V122.407z"/>
        <path d="M84.531,40.97c-24.021,0-43.563,19.542-43.563,43.563c0,24.02,19.542,43.561,43.563,43.561s43.563-19.541,43.563-43.561 C128.094,60.512,108.552,40.97,84.531,40.97z M84.531,113.093c-15.749,0-28.563-12.812-28.563-28.561 c0-15.75,12.813-28.563,28.563-28.563s28.563,12.813,28.563,28.563C113.094,100.281,100.28,113.093,84.531,113.093z"/>
        <path d="M129.921,28.251c-2.89,0-5.729,1.17-7.77,3.22c-2.051,2.04-3.23,4.88-3.23,7.78c0,2.891,1.18,5.73,3.23,7.78 c2.04,2.04,4.88,3.22,7.77,3.22c2.9,0,5.73-1.18,7.78-3.22c2.05-2.05,3.22-4.89,3.22-7.78c0-2.9-1.17-5.74-3.22-7.78 C135.661,29.421,132.821,28.251,129.921,28.251z"/>
    </symbol>
    <symbol id="twitter" viewBox="0 0 612 612">
        <title>twitter</title>
        <path d="M612,116.258c-22.525,9.981-46.694,16.75-72.088,19.772c25.929-15.527,45.777-40.155,55.184-69.411 c-24.322,14.379-51.169,24.82-79.775,30.48c-22.907-24.437-55.49-39.658-91.63-39.658c-69.334,0-125.551,56.217-125.551,125.513 c0,9.828,1.109,19.427,3.251,28.606C197.065,206.32,104.556,156.337,42.641,80.386c-10.823,18.51-16.98,40.078-16.98,63.101 c0,43.559,22.181,81.993,55.835,104.479c-20.575-0.688-39.926-6.348-56.867-15.756v1.568c0,60.806,43.291,111.554,100.693,123.104 c-10.517,2.83-21.607,4.398-33.08,4.398c-8.107,0-15.947-0.803-23.634-2.333c15.985,49.907,62.336,86.199,117.253,87.194 c-42.947,33.654-97.099,53.655-155.916,53.655c-10.134,0-20.116-0.612-29.944-1.721c55.567,35.681,121.536,56.485,192.438,56.485 c230.948,0,357.188-191.291,357.188-357.188l-0.421-16.253C573.872,163.526,595.211,141.422,612,116.258z"/>
    </symbol>
    <symbol id="ok" viewBox="0 0 25 24">
        <title>ok</title>
        <path d="M3.0242,-0.00049h18.14632c1.67038,0 3.02444,1.3434 3.02444,3.00023v17.99995c0,1.65634 -1.35406,3.00023 -3.02444,3.00023h-18.14632c-1.67027,0 -3.02433,-1.34389 -3.02433,-3.00023v-17.99995c0,-1.65683 1.35406,-3.00023 3.02433,-3.00023zM15.83861,12.84422c-0.30704,-0.49573 -0.95135,-0.64489 -1.44001,-0.33341c-1.45992,0.93102 -3.33961,0.93054 -4.79862,0c-0.48866,-0.31148 -1.13297,-0.16232 -1.43955,0.33341c-0.3075,0.49476 -0.16079,1.14794 0.32707,1.45942c0.6443,0.40994 1.34399,0.70144 2.06955,0.86863l-1.99253,2.01998c-0.40741,0.41384 -0.40741,1.08359 0.00046,1.49695c0.20393,0.20716 0.47104,0.31002 0.73803,0.31002c0.26733,0 0.53478,-0.10285 0.73883,-0.31002l1.95705,-1.98488l1.95911,1.98488c0.40718,0.41384 1.06842,0.41384 1.47617,0c0.40821,-0.41335 0.40821,-1.08359 0,-1.49695l-1.99265,-2.01998c0.72556,-0.16719 1.42525,-0.4582 2.06955,-0.86863c0.48786,-0.31148 0.6348,-0.96514 0.32753,-1.45942zM15.56372,8.61318c0,-1.99268 -1.59817,-3.61344 -3.56426,-3.61344c-1.96552,0 -3.56415,1.62076 -3.56415,3.61344c0,1.99171 1.59863,3.61198 3.56415,3.61198c1.96609,0 3.56426,-1.62027 3.56426,-3.61198zM13.47517,8.61318c0,0.82427 -0.66181,1.49549 -1.47572,1.49549c-0.81299,0 -1.47572,-0.67121 -1.47572,-1.49549c0,-0.82525 0.66273,-1.49646 1.47572,-1.49646c0.8139,0 1.47572,0.67121 1.47572,1.49646z"></path>
    </symbol>
    <symbol id="youtube" viewBox="0 0 20 24">
        <title>youtube</title>
        <path d="M19.65345,21.09328c-0.24044,1.02266 -1.09577,1.77626 -2.12482,1.88886c-2.43736,0.26615 -4.90437,0.26712 -7.36073,0.26615c-2.45625,0.00097 -4.92348,0 -7.36084,-0.26615c-1.02928,-0.1126 -1.88416,-0.86619 -2.12437,-1.88886c-0.34218,-1.45552 -0.34218,-3.04459 -0.34218,-4.54349c0,-1.49939 0.00378,-3.08749 0.34607,-4.54349c0.24044,-1.02218 1.09531,-1.77626 2.12437,-1.88837c2.43736,-0.26615 4.90459,-0.26761 7.36118,-0.26615c2.45613,-0.00146 4.92313,0 7.3605,0.26615c1.02894,0.11211 1.88427,0.86619 2.12482,1.88837c0.34206,1.456 0.34046,3.04411 0.34046,4.54349c0,1.4989 -0.00217,3.08798 -0.34447,4.54349zM5.94698,12.10476h-4.14116v1.21082h1.39732v7.39262h1.32111v-7.39262h1.42273zM9.53653,14.29729h-1.18881v4.89982c-0.26344,0.36412 -0.51247,0.54399 -0.75119,0.54399c-0.15839,0 -0.24879,-0.09213 -0.27775,-0.27248c-0.01099,-0.03802 -0.01099,-0.17938 -0.01099,-0.45138v-4.71995h-1.18744v5.06896c0,0.45235 0.03948,0.75944 0.10483,0.95296c0.1189,0.32513 0.38246,0.47721 0.76538,0.47721c0.43659,0 0.88486,-0.25786 1.35715,-0.78771v0.69949h1.18881zM14.04939,16.23148c0,-0.60687 -0.04051,-1.03046 -0.11971,-1.28832c-0.15884,-0.48014 -0.47653,-0.72337 -0.94963,-0.72337c-0.43659,0 -0.84412,0.233 -1.22749,0.69461v-2.80964h-1.18778v8.60344h1.18778v-0.62149c0.39665,0.47965 0.80532,0.70972 1.22749,0.70972c0.4731,0 0.79079,-0.24372 0.94963,-0.72045c0.07919,-0.27151 0.11971,-0.69851 0.11971,-1.29173zM18.53284,18.48787h-1.21216c0,0.46502 -0.01522,0.72337 -0.02632,0.78674c-0.06763,0.3105 -0.23827,0.46649 -0.53055,0.46649c-0.40798,0 -0.60642,-0.29686 -0.60642,-0.89008v-1.13624h2.37545v-1.32732c0,-0.68584 -0.1189,-1.18645 -0.36747,-1.5106c-0.33302,-0.43919 -0.80589,-0.65708 -1.40156,-0.65708c-0.60642,0 -1.07952,0.21789 -1.42284,0.65708c-0.25223,0.32415 -0.36724,0.82476 -0.36724,1.5106v2.24469c0,0.68096 0.12943,1.18645 0.38189,1.50719c0.34344,0.4387 0.81631,0.65708 1.43761,0.65708c0.62038,0 1.10813,-0.23007 1.43658,-0.6951c0.14431,-0.2057 0.23781,-0.43821 0.27786,-0.69607c0.01053,-0.11601 0.02518,-0.37387 0.02518,-0.74774zM16.15739,16.15398c0,-0.59274 0.19844,-0.8891 0.59532,-0.8891c0.39368,0 0.59235,0.29637 0.59235,0.8891v0.59371h-1.18767zM12.34457,19.7411c-0.19535,0 -0.39368,-0.09213 -0.592,-0.28662v-3.90689c0.19833,-0.19205 0.39665,-0.28272 0.592,-0.28272c0.34252,0 0.51693,0.29637 0.51693,0.87545v2.73506c0,0.57909 -0.17441,0.86571 -0.51693,0.86571zM14.90564,7.98193c-0.47756,0.5357 -0.93327,0.796 -1.37054,0.796c-0.38681,0 -0.65357,-0.15355 -0.77305,-0.4816c-0.06615,-0.19547 -0.10632,-0.50597 -0.10632,-0.96271v-5.12014h1.19648v4.76723c0,0.27492 0,0.41872 0.01419,0.45625c0.02666,0.18231 0.12028,0.27492 0.2813,0.27492c0.23975,0 0.49187,-0.18182 0.75794,-0.54935v-4.94905h1.20037v6.47427h-1.20037zM9.89587,8.77793c-0.59772,0 -1.06522,-0.2213 -1.39721,-0.66293c-0.25509,-0.32464 -0.37582,-0.835 -0.37582,-1.52278v-2.2676c0,-0.69217 0.12074,-1.19814 0.37582,-1.5262c0.33199,-0.44163 0.79948,-0.66342 1.39721,-0.66342c0.60162,0 1.06762,0.22179 1.40007,0.66342c0.25108,0.32805 0.37205,0.83402 0.37205,1.5262v2.2676c0,0.68779 -0.12096,1.19814 -0.37205,1.52278c-0.33245,0.44163 -0.79845,0.66293 -1.40007,0.66293zM10.46808,4.0887c0,-0.59858 -0.18551,-0.8969 -0.5722,-0.8969c-0.38715,0 -0.57301,0.29832 -0.57301,0.8969v2.72434c0,0.59907 0.18585,0.89885 0.57301,0.89885c0.3867,0 0.5722,-0.29978 0.5722,-0.89885zM6.51128,8.68776h-1.33095v-3.5179c-0.12039,-0.62442 -0.38635,-1.53741 -0.81287,-2.7492c-0.28072,-0.80624 -0.57323,-1.61589 -0.85339,-2.42115h1.40018l0.94482,3.41213l0.90717,-3.41213h1.34548l-1.60046,5.17035z"></path>
    </symbol>
    <symbol id="date" viewBox="0 0 15 16">
        <title>date</title>
        <path d="M6.99785,5.99978v2.00001h-1.99551v-2.00001zM9.99117,5.99978v2.00001h-1.99562v-2.00001zM12.98437,5.99978v2.00001h-1.99551v-2.00001zM4.00453,11.99981v2.00001h-1.99551v-2.00001zM6.99785,11.99981v2.00001h-1.99551v-2.00001zM9.99117,11.99981v2.00001h-1.99562v-2.00001zM6.99785,8.9998v2.00001h-1.99551v-2.00001zM9.99117,8.9998v2.00001h-1.99562v-2.00001zM12.98437,8.9998v2.00001h-1.99551v-2.00001zM4.00453,8.9998v2.00001h-1.99551v-2.00001zM14.97987,-0.00025v16.00007h-14.96635v-16.00007h1.99551v1h1.99551v-1h6.98433v1h1.99551zM13.98218,14.99982v-11.00005h-12.97096v11.00005z"></path>
    </symbol>
    <symbol id="comments" viewBox="0 0 16 16">
        <title>comments</title>
        <path d="M13.20463,7.58019c0,1.50611 -1.20197,2.72722 -2.68467,2.72722h-3.23639l-4.38103,3.11523l0.43819,-3.11523h-0.64213c-1.4827,0 -2.68467,-1.22111 -2.68467,-2.72722v-4.85322c0,-1.50647 1.20197,-2.72758 2.68467,-2.72758h7.82135c1.4827,0 2.68467,1.22111 2.68467,2.72758zM15.986,10.17999c0,1.50647 -1.20197,2.72722 -2.68467,2.72722h-0.0721l0.43476,3.09262l-4.7834,-3.09262h-2.97409l2.36252,-1.52729h3.50384c1.4827,0 2.68467,-1.22075 2.68467,-2.72722v-1.94186l0.00641,0.01184v-3.85357c0.90031,0.44006 1.52206,1.37474 1.52206,2.45766zM10.62627,7.69685c0,-0.28464 -0.22717,-0.51544 -0.50743,-0.51544h-7.10266c-0.28015,0 -0.50732,0.2308 -0.50732,0.51544c0,0.28464 0.22717,0.51544 0.50732,0.51544h7.10266c0.28027,0 0.50743,-0.2308 0.50743,-0.51544zM10.62627,5.115c0,-0.28464 -0.22717,-0.51544 -0.50743,-0.51544h-7.10266c-0.28015,0 -0.50732,0.2308 -0.50732,0.51544c0,0.28464 0.22717,0.51544 0.50732,0.51544h7.10266c0.28027,0 0.50743,-0.2308 0.50743,-0.51544zM10.62627,2.5694c0,-0.28464 -0.22717,-0.51544 -0.50743,-0.51544h-7.10266c-0.28015,0 -0.50732,0.2308 -0.50732,0.51544c0,0.28464 0.22717,0.51544 0.50732,0.51544h7.10266c0.28027,0 0.50743,-0.2308 0.50743,-0.51544z"></path>
    </symbol>
    <symbol id="user" viewBox="0 0 13 16">
        <title>user</title>
        <path d="M0.80991,15.98798c-0.44952,0 -0.81379,-0.36396 -0.81379,-0.81228c0,-1.16512 0.49198,-2.57575 1.31687,-3.77353c0.68974,-0.99929 1.53683,-1.75342 2.45235,-2.19276c-0.40352,-0.36684 -0.75062,-0.81372 -1.02562,-1.32269c-0.4398,-0.81659 -0.67314,-1.7606 -0.67314,-2.73009c0,-1.34746 0.44369,-2.61954 1.24981,-3.58437c0.84137,-1.00611 1.97388,-1.56103 3.18512,-1.56103c1.21433,0 2.34535,0.5542 3.18661,1.56103c0.80566,0.96411 1.25004,2.23619 1.25004,3.58437c0,0.96949 -0.23346,1.9135 -0.67337,2.73153c-0.275,0.50933 -0.62279,0.95442 -1.02562,1.32126c0.91564,0.43934 1.76136,1.19347 2.45247,2.1942c0.82489,1.19634 1.31676,2.60698 1.31676,3.77209c0,0.44832 -0.36415,0.81228 -0.81299,0.81228zM11.27999,14.36235c-0.15621,-0.66511 -0.48466,-1.39412 -0.92903,-2.03842c-0.70141,-1.01975 -1.57837,-1.6863 -2.46723,-1.87797c-0.37457,-0.08184 -0.64213,-0.41278 -0.64213,-0.79433v-0.5804c0,-0.29074 0.15621,-0.56102 0.41187,-0.70496c1.00765,-0.57323 1.65859,-1.83274 1.65859,-3.21035c0,-1.94186 -1.26034,-3.52083 -2.80907,-3.52083c-1.54861,0 -2.81055,1.57897 -2.81055,3.52083c0,1.37761 0.65174,2.63713 1.65939,3.21035c0.25497,0.14393 0.41107,0.41278 0.41107,0.70496v0.5804c0,0.38299 -0.26676,0.71429 -0.64213,0.79433c-0.88955,0.19167 -1.76491,0.85822 -2.46792,1.87797c-0.44369,0.64573 -0.77213,1.3733 -0.92823,2.03842z"></path>
    </symbol>
    <symbol id="category" viewBox="0 0 14 16">
        <title>category</title>
        <path d="M13.96188,-0.00053v16.00016h-13.96597v-16.00016zM9.99479,7.99981v0.99931h-5.98577v-0.99931zM9.99479,3.99937v1.00038h-5.98577v-1.00038zM9.99479,5.99959v0.99984h-5.98577v-0.99984zM0.99328,0.99931v14.00048h11.97092v-14.00048z"></path>
    </symbol>
</svg>
