<?xml version="1.0" encoding="UTF-8" standalone="no"?>
<svg
   width="24"
   height="24"
   fill="#000"
   stroke="none"
   version="1.1"
   id="svg1"
   sodipodi:docname="telegram.svg"
   xml:space="preserve"
   inkscape:version="1.4.3 (0d15f75, 2025-12-25)"
   xmlns:inkscape="http://www.inkscape.org/namespaces/inkscape"
   xmlns:sodipodi="http://sodipodi.sourceforge.net/DTD/sodipodi-0.dtd"
   xmlns="http://www.w3.org/2000/svg"
   xmlns:svg="http://www.w3.org/2000/svg"><defs
     id="defs1" /><sodipodi:namedview
     id="namedview1"
     pagecolor="#ffffff"
     bordercolor="#000000"
     borderopacity="0.25"
     inkscape:showpageshadow="2"
     inkscape:pageopacity="0.0"
     inkscape:pagecheckerboard="0"
     inkscape:deskcolor="#d1d1d1"
     inkscape:zoom="11.888233"
     inkscape:cx="34.025242"
     inkscape:cy="24.940629"
     inkscape:window-width="2560"
     inkscape:window-height="1009"
     inkscape:window-x="-8"
     inkscape:window-y="-8"
     inkscape:window-maximized="1"
     inkscape:current-layer="svg1" /><g
     style="fill:none"
     id="g1"
     transform="matrix(0.52380988,0,0,0.52380988,-0.57142923,-0.66666903)"><path
       d="m 41.4193,7.30899 c 0,0 3.8853,-1.515 3.5615,2.16429 -0.1079,1.51502 -1.0792,6.81752 -1.8347,12.55292 l -2.5902,16.9897 c 0,0 -0.2158,2.4889 -2.1585,2.9218 -1.9427,0.4328 -4.8566,-1.515 -5.3963,-1.9479 -0.4317,-0.3246 -8.0943,-5.1943 -10.7925,-7.575 -0.7555,-0.6493 -1.6189,-1.9479 0.1079,-3.4629 L 33.6487,18.1305 c 1.2951,-1.2986 2.5902,-4.3286 -2.8061,-0.6493 L 15.7331,27.7616 c 0,0 -1.7268,1.0821 -4.9645,0.1082 L 3.75342,25.7055 c 0,0 -2.59021,-1.6232 1.83473,-3.2465 C 16.3807,17.3729 29.6555,12.1786 41.4193,7.30899 Z"
       fill="#000000"
       id="path1" /></g></svg>
