<?xml version="1.0" encoding="UTF-8" standalone="no"?>
<svg
   width="24"
   height="24"
   fill="#000"
   stroke="none"
   version="1.1"
   id="svg1"
   sodipodi:docname="whatsapp.svg"
   xml:space="preserve"
   inkscape:version="1.4.3 (0d15f75, 2025-12-25)"
   xmlns:inkscape="http://www.inkscape.org/namespaces/inkscape"
   xmlns:sodipodi="http://sodipodi.sourceforge.net/DTD/sodipodi-0.dtd"
   xmlns="http://www.w3.org/2000/svg"
   xmlns:svg="http://www.w3.org/2000/svg"><defs
     id="defs1" /><sodipodi:namedview
     id="namedview1"
     pagecolor="#ffffff"
     bordercolor="#000000"
     borderopacity="0.25"
     inkscape:showpageshadow="2"
     inkscape:pageopacity="0.0"
     inkscape:pagecheckerboard="0"
     inkscape:deskcolor="#d1d1d1"
     inkscape:zoom="11.888233"
     inkscape:cx="34.025242"
     inkscape:cy="24.940629"
     inkscape:window-width="2560"
     inkscape:window-height="1009"
     inkscape:window-x="-8"
     inkscape:window-y="-8"
     inkscape:window-maximized="1"
     inkscape:current-layer="svg1" /><path
     d="M 19.704875,4.1968755 C 17.64729,2.1343751 14.907117,1 11.995067,1 5.9843652,1 1.0933036,5.8910713 1.0933036,11.901786 c 0,1.920088 0.5008916,3.795982 1.4535695,5.450893 L 1,23 6.7798998,21.48259 c 1.5910687,0.869196 3.3834762,1.325894 5.2102582,1.325894 h 0.005 C 18.000903,22.808484 23,17.917411 23,11.906697 23,8.994643 21.762502,6.2593744 19.704918,4.1968755 Z M 11.995067,20.971876 c -1.630354,0 -3.2263326,-0.437055 -4.6160626,-1.262055 L 7.049988,19.513393 3.6223159,20.412053 4.5357076,17.067858 4.3196371,16.724107 c -0.90848,-1.44375 -1.38482,-3.108482 -1.38482,-4.822321 0,-4.9941976 4.0660633,-9.0602689 9.0651619,-9.0602689 2.420977,0 4.694633,0.9428576 6.403559,2.6566974 1.708924,1.7138391 2.759814,3.987499 2.754905,6.4084825 0,4.999108 -4.169189,9.065179 -9.163376,9.065179 z m 4.969634,-6.786608 c -0.270089,-0.137501 -1.61071,-0.795537 -1.861157,-0.883928 -0.250445,-0.0933 -0.432143,-0.1375 -0.613837,0.137499 -0.181698,0.274999 -0.702232,0.88393 -0.864285,1.070536 -0.157144,0.181697 -0.319197,0.206251 -0.589285,0.06874 C 11.435249,13.777679 10.384357,13.149109 9.3285565,11.337053 9.048645,10.855804 9.6084643,10.890178 10.129,9.8491067 10.21739,9.6674115 10.17319,9.5102673 10.10444,9.3727683 10.035692,9.2352687 9.4906058,7.8946443 9.2647125,7.3495534 9.0437333,6.819197 8.8178403,6.8928567 8.6508774,6.8830366 c -0.1571435,-0.00982 -0.3388405,-0.00982 -0.5205358,-0.00982 -0.1816949,0 -0.4763377,0.068749 -0.7267846,0.3388394 -0.2504448,0.2749988 -0.9526754,0.9330353 -0.9526754,2.2736598 0,1.3406262 0.9772294,2.6370542 1.1098188,2.8187502 0.1374994,0.181697 1.9200851,2.931696 4.6553486,4.115178 1.728568,0.746429 2.406246,0.810269 3.270529,0.682589 0.525446,-0.07857 1.610711,-0.658034 1.836604,-1.296428 0.22589,-0.638393 0.22589,-1.183481 0.157141,-1.296429 -0.06384,-0.122767 -0.245535,-0.191517 -0.515623,-0.324107 z"
     id="path1-8"
     style="stroke-width:0.049107" /></svg>
