<svg xmlns="http://www.w3.org/2000/svg" style="display: none;">
    <symbol id="phone" viewBox="0 0 19 18">
        <title>phone</title>
        <path d="M5.57834,13.31178c-2.27888,-2.19275 -5.6971,-6.94185 -4.55356,-10.48857c1.5666,-4.85606 3.85506,-2.68127 6.10918,-0.01687c1.48622,1.75758 -0.6086,2.49838 -1.81567,3.36846c-2.00308,2.30597 5.09175,9.39995 7.39746,7.3969c0.87007,-1.20646 1.61105,-3.30151 3.3685,-1.81582c2.66464,2.2548 4.83884,4.54254 -0.01726,6.10988c-3.5463,1.14332 -8.29582,-2.27467 -10.48865,-4.55397z"/>
    </symbol>
    <symbol id="quotes" viewBox="0 0 33 30">
        <title>quotes</title>
        <path d="M16.55154,-0.03832h-12.21325l-4.31065,29.30969h9.4194zM32.35709,-0.03832h-12.21336l-4.31053,29.30969h9.4194z"></path>
    </symbol>
    <symbol id="clock" viewBox="0 0 25 25">
        <title>clock</title>
        <path d="M12.49934,24.98667c-6.90365,0 -12.50015,-5.59686 -12.50015,-12.50009c0,-6.90371 5.5965,-12.50009 12.50015,-12.50009c6.90353,0 12.49981,5.59638 12.49981,12.50009c0,6.90322 -5.59628,12.50009 -12.49981,12.50009zM12.39851,2.41642c-5.57602,0 -10.09621,4.52009 -10.09621,10.096c0,5.5759 4.52019,10.09649 10.09621,10.09649c5.57579,0 10.09621,-4.52058 10.09621,-10.09649c0,-5.5759 -4.52042,-10.096 -10.09621,-10.096zM15.31618,14.99644h-3.81672c-0.52574,0 -0.95169,-0.42652 -0.95169,-0.95198v-5.78989c0,-0.52547 0.42595,-0.9515 0.95169,-0.9515c0.52563,0 0.95158,0.42603 0.95158,0.9515v4.8384h2.86514c0.5254,0 0.95158,0.42603 0.95158,0.9515c0,0.52547 -0.42618,0.95198 -0.95158,0.95198z"></path>
    </symbol>
    <symbol id="vk" viewBox="0 0 25 24">
        <title>vk</title>
        <path d="M3.02406,-0.00049h18.14655c1.67027,0 3.02433,1.3434 3.02433,3.00023v17.99995c0,1.65634 -1.35406,3.00023 -3.02433,3.00023h-18.14655c-1.67027,0 -3.02433,-1.34389 -3.02433,-3.00023v-17.99995c0,-1.65683 1.35406,-3.00023 3.02433,-3.00023zM16.0519,12.30023c-0.38372,-0.41774 -0.94414,-0.69461 -1.54587,-0.82963v-0.05606c0.42973,-0.1862 0.80498,-0.47819 1.05698,-0.87497c0.25177,-0.39629 0.38452,-0.84913 0.38452,-1.35754c0,-0.4387 -0.08789,-0.82573 -0.2702,-1.16207c-0.18276,-0.33585 -0.45719,-0.60443 -0.82695,-0.80477c-0.34206,-0.18669 -0.70736,-0.3144 -1.09795,-0.3729c-0.3907,-0.05801 -0.96405,-0.0931 -1.72188,-0.0931h-3.71361v10.50009h4.19895c0.71629,0 1.30657,-0.09944 1.7712,-0.23007c0.46452,-0.13015 0.89081,-0.36656 1.27911,-0.67463c0.32822,-0.2564 0.58926,-0.58932 0.78346,-0.98123c0.19409,-0.39191 0.28427,-0.85157 0.28427,-1.36875c0,-0.70972 -0.19844,-1.27711 -0.58205,-1.69437zM10.89577,8.65851h0.24719c0.46223,0 0.8099,0.00975 1.04347,0.01657c0.23335,0.00682 0.43568,0.05118 0.60654,0.12576c0.18036,0.07945 0.31322,0.20911 0.39883,0.38655c0.08549,0.17743 0.12817,0.35096 0.12817,0.51816c0,0.2291 -0.03925,0.42993 -0.11787,0.60248c-0.07862,0.17256 -0.22179,0.30807 -0.42984,0.40604c-0.18951,0.0892 -0.37319,0.15793 -0.55115,0.16671c-0.17796,0.00975 -0.48878,0.03363 -0.93235,0.03363h-0.39299zM13.80886,14.61608c-0.10872,0.19839 -0.28095,0.34901 -0.5167,0.45186c-0.26802,0.11699 -0.53146,0.21399 -0.79021,0.22325c-0.25898,0.01024 -0.72567,0.04923 -1.40041,0.04923h-0.20576v-2.69022h0.54543c0.46211,0 0.83073,0.00877 1.10584,0.0156c0.27489,0.00682 0.49095,0.04338 0.64819,0.10383c0.25875,0.09359 0.45296,0.23202 0.58228,0.41384c0.12932,0.18231 0.19421,0.43529 0.19421,0.757c0,0.25201 -0.05436,0.4777 -0.16285,0.6756z"></path>
    </symbol>
    <symbol id="instagram" viewBox="0 0 169.063 169.063">
        <title>instagram</title>
        <path d="M122.406,0H46.654C20.929,0,0,20.93,0,46.655v75.752c0,25.726,20.929,46.655,46.654,46.655h75.752 c25.727,0,46.656-20.93,46.656-46.655V46.655C169.063,20.93,148.133,0,122.406,0z M154.063,122.407 c0,17.455-14.201,31.655-31.656,31.655H46.654C29.2,154.063,15,139.862,15,122.407V46.655C15,29.201,29.2,15,46.654,15h75.752 c17.455,0,31.656,14.201,31.656,31.655V122.407z"/>
        <path d="M84.531,40.97c-24.021,0-43.563,19.542-43.563,43.563c0,24.02,19.542,43.561,43.563,43.561s43.563-19.541,43.563-43.561 C128.094,60.512,108.552,40.97,84.531,40.97z M84.531,113.093c-15.749,0-28.563-12.812-28.563-28.561 c0-15.75,12.813-28.563,28.563-28.563s28.563,12.813,28.563,28.563C113.094,100.281,100.28,113.093,84.531,113.093z"/>
        <path d="M129.921,28.251c-2.89,0-5.729,1.17-7.77,3.22c-2.051,2.04-3.23,4.88-3.23,7.78c0,2.891,1.18,5.73,3.23,7.78 c2.04,2.04,4.88,3.22,7.77,3.22c2.9,0,5.73-1.18,7.78-3.22c2.05-2.05,3.22-4.89,3.22-7.78c0-2.9-1.17-5.74-3.22-7.78 C135.661,29.421,132.821,28.251,129.921,28.251z"/>
    </symbol>
    <symbol id="ok" viewBox="0 0 25 24">
        <title>ok</title>
        <path d="M3.0242,-0.00049h18.14632c1.67038,0 3.02444,1.3434 3.02444,3.00023v17.99995c0,1.65634 -1.35406,3.00023 -3.02444,3.00023h-18.14632c-1.67027,0 -3.02433,-1.34389 -3.02433,-3.00023v-17.99995c0,-1.65683 1.35406,-3.00023 3.02433,-3.00023zM15.83861,12.84422c-0.30704,-0.49573 -0.95135,-0.64489 -1.44001,-0.33341c-1.45992,0.93102 -3.33961,0.93054 -4.79862,0c-0.48866,-0.31148 -1.13297,-0.16232 -1.43955,0.33341c-0.3075,0.49476 -0.16079,1.14794 0.32707,1.45942c0.6443,0.40994 1.34399,0.70144 2.06955,0.86863l-1.99253,2.01998c-0.40741,0.41384 -0.40741,1.08359 0.00046,1.49695c0.20393,0.20716 0.47104,0.31002 0.73803,0.31002c0.26733,0 0.53478,-0.10285 0.73883,-0.31002l1.95705,-1.98488l1.95911,1.98488c0.40718,0.41384 1.06842,0.41384 1.47617,0c0.40821,-0.41335 0.40821,-1.08359 0,-1.49695l-1.99265,-2.01998c0.72556,-0.16719 1.42525,-0.4582 2.06955,-0.86863c0.48786,-0.31148 0.6348,-0.96514 0.32753,-1.45942zM15.56372,8.61318c0,-1.99268 -1.59817,-3.61344 -3.56426,-3.61344c-1.96552,0 -3.56415,1.62076 -3.56415,3.61344c0,1.99171 1.59863,3.61198 3.56415,3.61198c1.96609,0 3.56426,-1.62027 3.56426,-3.61198zM13.47517,8.61318c0,0.82427 -0.66181,1.49549 -1.47572,1.49549c-0.81299,0 -1.47572,-0.67121 -1.47572,-1.49549c0,-0.82525 0.66273,-1.49646 1.47572,-1.49646c0.8139,0 1.47572,0.67121 1.47572,1.49646z"></path>
    </symbol>
    <symbol id="youtube" viewBox="0 0 20 24">
        <title>youtube</title>
        <path d="M19.65345,21.09328c-0.24044,1.02266 -1.09577,1.77626 -2.12482,1.88886c-2.43736,0.26615 -4.90437,0.26712 -7.36073,0.26615c-2.45625,0.00097 -4.92348,0 -7.36084,-0.26615c-1.02928,-0.1126 -1.88416,-0.86619 -2.12437,-1.88886c-0.34218,-1.45552 -0.34218,-3.04459 -0.34218,-4.54349c0,-1.49939 0.00378,-3.08749 0.34607,-4.54349c0.24044,-1.02218 1.09531,-1.77626 2.12437,-1.88837c2.43736,-0.26615 4.90459,-0.26761 7.36118,-0.26615c2.45613,-0.00146 4.92313,0 7.3605,0.26615c1.02894,0.11211 1.88427,0.86619 2.12482,1.88837c0.34206,1.456 0.34046,3.04411 0.34046,4.54349c0,1.4989 -0.00217,3.08798 -0.34447,4.54349zM5.94698,12.10476h-4.14116v1.21082h1.39732v7.39262h1.32111v-7.39262h1.42273zM9.53653,14.29729h-1.18881v4.89982c-0.26344,0.36412 -0.51247,0.54399 -0.75119,0.54399c-0.15839,0 -0.24879,-0.09213 -0.27775,-0.27248c-0.01099,-0.03802 -0.01099,-0.17938 -0.01099,-0.45138v-4.71995h-1.18744v5.06896c0,0.45235 0.03948,0.75944 0.10483,0.95296c0.1189,0.32513 0.38246,0.47721 0.76538,0.47721c0.43659,0 0.88486,-0.25786 1.35715,-0.78771v0.69949h1.18881zM14.04939,16.23148c0,-0.60687 -0.04051,-1.03046 -0.11971,-1.28832c-0.15884,-0.48014 -0.47653,-0.72337 -0.94963,-0.72337c-0.43659,0 -0.84412,0.233 -1.22749,0.69461v-2.80964h-1.18778v8.60344h1.18778v-0.62149c0.39665,0.47965 0.80532,0.70972 1.22749,0.70972c0.4731,0 0.79079,-0.24372 0.94963,-0.72045c0.07919,-0.27151 0.11971,-0.69851 0.11971,-1.29173zM18.53284,18.48787h-1.21216c0,0.46502 -0.01522,0.72337 -0.02632,0.78674c-0.06763,0.3105 -0.23827,0.46649 -0.53055,0.46649c-0.40798,0 -0.60642,-0.29686 -0.60642,-0.89008v-1.13624h2.37545v-1.32732c0,-0.68584 -0.1189,-1.18645 -0.36747,-1.5106c-0.33302,-0.43919 -0.80589,-0.65708 -1.40156,-0.65708c-0.60642,0 -1.07952,0.21789 -1.42284,0.65708c-0.25223,0.32415 -0.36724,0.82476 -0.36724,1.5106v2.24469c0,0.68096 0.12943,1.18645 0.38189,1.50719c0.34344,0.4387 0.81631,0.65708 1.43761,0.65708c0.62038,0 1.10813,-0.23007 1.43658,-0.6951c0.14431,-0.2057 0.23781,-0.43821 0.27786,-0.69607c0.01053,-0.11601 0.02518,-0.37387 0.02518,-0.74774zM16.15739,16.15398c0,-0.59274 0.19844,-0.8891 0.59532,-0.8891c0.39368,0 0.59235,0.29637 0.59235,0.8891v0.59371h-1.18767zM12.34457,19.7411c-0.19535,0 -0.39368,-0.09213 -0.592,-0.28662v-3.90689c0.19833,-0.19205 0.39665,-0.28272 0.592,-0.28272c0.34252,0 0.51693,0.29637 0.51693,0.87545v2.73506c0,0.57909 -0.17441,0.86571 -0.51693,0.86571zM14.90564,7.98193c-0.47756,0.5357 -0.93327,0.796 -1.37054,0.796c-0.38681,0 -0.65357,-0.15355 -0.77305,-0.4816c-0.06615,-0.19547 -0.10632,-0.50597 -0.10632,-0.96271v-5.12014h1.19648v4.76723c0,0.27492 0,0.41872 0.01419,0.45625c0.02666,0.18231 0.12028,0.27492 0.2813,0.27492c0.23975,0 0.49187,-0.18182 0.75794,-0.54935v-4.94905h1.20037v6.47427h-1.20037zM9.89587,8.77793c-0.59772,0 -1.06522,-0.2213 -1.39721,-0.66293c-0.25509,-0.32464 -0.37582,-0.835 -0.37582,-1.52278v-2.2676c0,-0.69217 0.12074,-1.19814 0.37582,-1.5262c0.33199,-0.44163 0.79948,-0.66342 1.39721,-0.66342c0.60162,0 1.06762,0.22179 1.40007,0.66342c0.25108,0.32805 0.37205,0.83402 0.37205,1.5262v2.2676c0,0.68779 -0.12096,1.19814 -0.37205,1.52278c-0.33245,0.44163 -0.79845,0.66293 -1.40007,0.66293zM10.46808,4.0887c0,-0.59858 -0.18551,-0.8969 -0.5722,-0.8969c-0.38715,0 -0.57301,0.29832 -0.57301,0.8969v2.72434c0,0.59907 0.18585,0.89885 0.57301,0.89885c0.3867,0 0.5722,-0.29978 0.5722,-0.89885zM6.51128,8.68776h-1.33095v-3.5179c-0.12039,-0.62442 -0.38635,-1.53741 -0.81287,-2.7492c-0.28072,-0.80624 -0.57323,-1.61589 -0.85339,-2.42115h1.40018l0.94482,3.41213l0.90717,-3.41213h1.34548l-1.60046,5.17035z"></path>
    </symbol>
</svg>
